:SAMPLES-PER-SECOND 24
:FULLY-SPECIFIED
:DEGREES
40
root  9.27125 39.109 19.149 -3.76062 56.6512 -6.55536
RightUpLeg  -16.4056 -5.58184 -10.5837
RightLeg  4.98695 -1.90854 -2.29558
RightFoot  -1.73138 -0.584168 6.79808
RightToes  -2.08645e-008 3.77894e-005 6.81332e-007
Spine  -1.48113 -1.07449 -4.46746
Spine1  12.5373 -2.27921 4.38941
HEad  -19.8588 26.8559 -10.1806
LeftShoulder1  7.96577 -13.7122 -40.063
LeftArm  8.58121 12.3883 -24.9098
LeftForeArm  146.991 -76.9744 -133.896
LeftHand  -0.555908 -2.07764 8.83508
RightShoulder  4.161 6.80087 34.4866
RightArm  8.61734 -24.7133 31.3197
RightForeArm  83.2069 79.8994 69.2047
RightHand  -0.703657 7.68087 -6.59534
LeftUpLeg  -5.58836 5.48945 0.491155
LeftLeg  21.4119 17.249 7.60374
LeftFoot  -16.7477 -0.119111 -4.64591
LeftToes  1.24767e-006 1.47042e-008 1.32732e-009
41
root  9.52136 39.0324 19.5625 -3.24207 58.7797 -6.44
RightUpLeg  -17.8796 -5.4209 -9.93371
RightLeg  6.5386 -3.15419 -1.72517
RightFoot  -1.97155 -0.609543 7.27165
RightToes  -2.08645e-008 3.77894e-005 6.81332e-007
Spine  -0.535706 -0.863168 -3.86696
Spine1  12.0593 -1.86215 3.69243
HEad  -22.0666 25.5356 -12.6263
LeftShoulder1  7.95396 -13.7032 -40.0207
LeftArm  8.12242 18.3535 -23.0674
LeftForeArm  148.678 -76.4337 -136.158
LeftHand  -0.535685 -1.65963 8.99883
RightShoulder  4.14499 6.77867 34.4189
RightArm  9.12016 -24.3526 30.1822
RightForeArm  86.1758 80.0759 71.7908
RightHand  -0.643868 7.81185 -6.01435
LeftUpLeg  -5.80789 3.71391 0.549259
LeftLeg  21.9451 16.9939 7.7071
LeftFoot  -17.2984 -0.149758 -4.86713
LeftToes  1.24767e-006 1.47042e-008 1.32732e-009
42
root  9.72853 38.9972 20.061 -3.02368 61.4557 -6.68762
RightUpLeg  -19.8697 -3.90644 -8.81788
RightLeg  10.3533 -5.86212 -1.96955
RightFoot  -3.17668 -0.443502 5.90457
RightToes  -2.08645e-008 3.77894e-005 6.81332e-007
Spine  1.3764 -0.889267 -4.05895
Spine1  11.1171 -2.00526 4.10361
HEad  -24.6134 23.4308 -14.5045
LeftShoulder1  7.93705 -13.6995 -39.9369
LeftArm  6.76446 24.8185 -21.6245
LeftForeArm  148.287 -76.1524 -136.992
LeftHand  -0.542205 -1.41373 9.41442
RightShoulder  4.08327 6.72922 34.0143
RightArm  9.6673 -23.8214 28.9352
RightForeArm  90.917 80.3029 76.5143
RightHand  -0.513523 8.04088 -4.80099
LeftUpLeg  -5.9011 1.03405 0.936482
LeftLeg  22.0604 16.7603 7.65494
LeftFoot  -17.587 -0.199173 -5.57729
LeftToes  1.24767e-006 1.47042e-008 1.32732e-009
43
root  9.91213 38.9637 20.6961 -2.77356 65.4824 -7.1203
RightUpLeg  -21.4709 0.470718 -8.78499
RightLeg  13.5642 -4.02679 -1.67064
RightFoot  -6.14821 -0.312321 6.0079
RightToes  -2.08645e-008 3.77894e-005 6.81332e-007
Spine  3.60332 -1.11378 -5.12119
Spine1  10.0366 -2.62527 5.44385
HEad  -26.784 20.6426 -15.4636
LeftShoulder1  7.91192 -13.7251 -39.7332
LeftArm  5.60322 30.4327 -20.3179
LeftForeArm  145.459 -76.4957 -135.242
LeftHand  -0.518472 -1.28905 9.168
RightShoulder  3.94579 6.58883 33.2109
RightArm  10.5305 -23.4499 27.3541
RightForeArm  99.5326 80.5182 85.5375
RightHand  -0.535963 8.17155 -4.95414
LeftUpLeg  -6.43478 -2.51541 1.62254
LeftLeg  22.1071 15.8463 7.28656
LeftFoot  -17.7331 -0.245842 -6.30031
LeftToes  1.24767e-006 1.47042e-008 1.32732e-009
44
root  10.0965 38.8524 21.46 -2.94531 71.2688 -7.93286
RightUpLeg  -22.6148 8.72028 -10.9492
RightLeg  15.6297 1.71662 0.241996
RightFoot  -11.6124 -0.0516581 8.49945
RightToes  -2.08645e-008 3.77894e-005 6.81332e-007
Spine  6.98232 -1.50205 -6.15455
Spine1  8.03741 -3.5223 7.1444
HEad  -28.7677 18.1285 -16.8073
LeftShoulder1  7.85579 -13.7335 -39.4019
LeftArm  5.02297 34.3748 -19.4108
LeftForeArm  142.345 -77.0983 -132.341
LeftHand  -0.516138 -1.28667 9.12947
RightShoulder  3.80191 6.42859 32.3938
RightArm  11.7194 -23.1492 24.4097
RightForeArm  111.934 80.4393 98.2255
RightHand  -0.48625 8.5252 -4.42595
LeftUpLeg  -7.58992 -6.83333 2.62272
LeftLeg  22.9283 14.493 6.96023
LeftFoot  -18.24 -0.305866 -6.88012
LeftToes  1.24767e-006 1.47042e-008 1.32732e-009
45
root  10.2772 38.6464 22.294 -4.41345 78.3987 -9.84375
RightUpLeg  -24.2273 18.0063 -14.3978
RightLeg  18.1072 8.65346 2.96336
RightFoot  -18.0934 0.583985 11.8381
RightToes  -2.08645e-008 3.77894e-005 6.81332e-007
Spine  11.4842 -2.0238 -5.3928
Spine1  5.49557 -4.11748 7.52363
HEad  -31.2384 17.8856 -20.1344
LeftShoulder1  7.79441 -13.7286 -39.0743
LeftArm  5.03797 35.933 -19.0251
LeftForeArm  141.442 -77.2899 -131.37
LeftHand  -0.529984 -1.16214 9.54126
RightShoulder  3.71152 6.37061 31.6992
RightArm  11.9005 -22.3223 20.8789
RightForeArm  116.74 80.2023 104.203
RightHand  -0.534414 8.11228 -4.95711
LeftUpLeg  -9.28732 -11.7612 3.93581
LeftLeg  24.3337 11.9113 6.16555
LeftFoot  -19.116 -0.442997 -8.18452
LeftToes  1.24767e-006 1.47042e-008 1.32732e-009
46
root  10.4762 38.4043 23.2079 -4.50281 86.3003 -10.5128
RightUpLeg  -26.1856 25.3026 -18.5144
RightLeg  21.2325 13.3399 5.45773
RightFoot  -21.6405 1.12597 14.0665
RightToes  -2.08645e-008 3.77894e-005 6.81332e-007
Spine  15.2608 -2.72405 -2.43004
Spine1  4.01817 -4.0318 5.17589
HEad  -34.179 21.5641 -25.6947
LeftShoulder1  7.77928 -13.7507 -38.9354
LeftArm  4.21545 35.2559 -19.7027
LeftForeArm  141.564 -77.3155 -131.297
LeftHand  -0.493616 -0.970138 9.14787
RightShoulder  3.60248 6.34271 30.6862
RightArm  10.6683 -20.5645 19.2864
RightForeArm  102.015 80.3983 91.2815
RightHand  -0.6306 7.3158 -6.10562
LeftUpLeg  -11.6698 -16.8448 5.14178
LeftLeg  25.5067 8.5526 4.77254
LeftFoot  -19.6939 -0.571273 -9.42023
LeftToes  1.24767e-006 1.47042e-008 1.32732e-009
47
root  10.676 38.1851 24.2692 163.087 85.3 155.712
RightUpLeg  -27.5132 27.8676 -22.0772
RightLeg  24.0735 13.294 6.20732
RightFoot  -21.0153 1.09788 14.5879
RightToes  -2.08645e-008 3.77894e-005 6.81332e-007
Spine  17.7575 -3.32795 2.01838
Spine1  3.45468 -3.07339 0.447195
HEad  -36.9165 28.8767 -32.2753
LeftShoulder1  7.86968 -13.8017 -39.3066
LeftArm  1.55409 33.1735 -21.4872
LeftForeArm  140.024 -77.6355 -129.573
LeftHand  -0.487695 -1.47748 8.40977
RightShoulder  3.49452 6.31359 29.6773
RightArm  9.1013 -17.823 20.1165
RightForeArm  70.3879 78.9058 60.2069
RightHand  -0.939739 6.81799 -9.25088
LeftUpLeg  -14.7727 -20.6647 6.0472
LeftLeg  25.34 5.26638 3.06169
LeftFoot  -19.4273 -0.623233 -10.4307
LeftToes  1.24767e-006 1.47042e-008 1.32732e-009
48
root  10.7816 38.0954 25.5152 165.384 77.21 155.34
RightUpLeg  -28.6957 23.6038 -23.9759
RightLeg  26.7756 11.4236 5.98961
RightFoot  -19.3224 0.817743 13.5406
RightToes  -2.08645e-008 3.77894e-005 6.81332e-007
Spine  20.0211 -3.52715 8.17266
Spine1  2.81383 -0.771139 -6.88605
HEad  -38.8776 36.9152 -37.2266
LeftShoulder1  8.00681 -13.857 -39.9197
LeftArm  -0.307936 29.2536 -22.8424
LeftForeArm  137.527 -77.9933 -127.3
LeftHand  -0.536716 -1.82171 8.82243
RightShoulder  3.50515 6.37975 29.5422
RightArm  7.88949 -14.1933 22.0597
RightForeArm  46.3288 73.6121 35.188
RightHand  -1.00708 6.72091 -9.96397
LeftUpLeg  -18.236 -21.5566 6.9761
LeftLeg  22.062 -1.08397 -0.254352
LeftFoot  -17.7638 -0.680817 -14.037
LeftToes  1.24767e-006 1.47042e-008 1.32732e-009
49
root  10.8144 38.195 26.9554 163.917 70.0189 149.923
RightUpLeg  -31.1663 13.9353 -25.2454
RightLeg  29.8259 12.1019 7.19724
RightFoot  -18.6739 0.628785 11.773
RightToes  -2.08645e-008 3.77894e-005 6.81332e-007
Spine  22.6364 -3.48593 14.7357
Spine1  2.1486 2.51811 -16.5462
HEad  -40.4347 43.3867 -39.5867
LeftShoulder1  8.07905 -13.9051 -40.1924
LeftArm  1.25889 22.6395 -22.6236
LeftForeArm  135.525 -78.4768 -124.309
LeftHand  -0.55187 -1.2954 9.74418
RightShoulder  3.49641 6.45339 29.1842
RightArm  7.98374 -9.23306 25.0079
RightForeArm  34.5358 65.9475 22.1794
RightHand  -1.10153 7.02292 -10.6008
LeftUpLeg  -20.8769 -15.1798 5.5932
LeftLeg  15.9142 -15.0585 -2.86599
LeftFoot  -15.036 -0.555448 -20.0572
LeftToes  1.24767e-006 1.47042e-008 1.32732e-009
50
root  10.9269 38.4034 28.5105 162.938 63.547 144.419
RightUpLeg  -34.3495 4.06139 -26.7147
RightLeg  32.3364 13.621 8.91057
RightFoot  -17.6216 0.42252 9.86342
RightToes  -2.08645e-008 3.77894e-005 6.81332e-007
Spine  25.7641 -3.54881 18.6158
Spine1  1.20519 5.08015 -25.1201
HEad  -42.4857 49.458 -41.8174
LeftShoulder1  7.96008 -13.8386 -39.7109
LeftArm  4.63503 14.7854 -22.02
LeftForeArm  135.646 -78.9311 -121.809
LeftHand  -0.557244 -1.35306 9.75309
RightShoulder  3.32153 6.4878 27.2549
RightArm  10.9731 -2.2919 28.5516
RightForeArm  29.5057 57.8791 15.3727
RightHand  -1.17872 8.25373 -10.357
LeftUpLeg  -22.7173 -7.59179 3.39193
LeftLeg  9.49518 -22.6667 -1.56519
LeftFoot  -13.356 -0.318009 -22.341
LeftToes  1.24767e-006 1.47042e-008 1.32732e-009
